<?xml version="1.0" encoding="utf-8"?>
<!-- Generator: Adobe Illustrator 21.1.0, SVG Export Plug-In . SVG Version: 6.00 Build 0)  -->
<svg version="1.1" id="Camada_1" xmlns="http://www.w3.org/2000/svg" xmlns:xlink="http://www.w3.org/1999/xlink" x="0px" y="0px"
	 viewBox="0 0 3172 714" style="enable-background:new 0 0 3172 714;" xml:space="preserve">
<style type="text/css">
	.st0{fill:#FFFFFF;}
</style>
<g>
	<path class="st0" d="M1133.1,196.6c5.7,0,8.6-1.8,14.5-9.4c4.9-6.3,4.9-15.2,0.7-20.7c-4-5.1-16.8-6.1-22.2-2.8
		c-5.3,3.2-5.9,8.6-7.1,13.7C1116.3,188.2,1122.7,196.6,1133.1,196.6z"/>
	<path class="st0" d="M2342.6,167.1c0.4-6-1.8-11.1-7.3-13.4c-10.6-4.5-23.3-2.7-23.9,12.2c0,0.4-0.6,0.8-0.7,1.3
		c-2.6,11.3,4.8,20.8,15,19.3C2335.5,185.1,2343.4,176,2342.6,167.1z"/>
	<path class="st0" d="M601.4,400.9c1,3,1.4,4.9,2.3,6.8c2.2,4.8,4,10.1,7.1,14.3c6.1,8.3,13.8,8.1,21.9,1.2
		c18.4-15.8,31.7-35.6,43.1-56.8c6-11.2,12-22.4,17.9-33.7c0.8-1.4,1.2-3,2-5.3c-7.4-1.2-14.5-2.8-21.8-3.6
		c-14.2-1.6-28.5-2.8-42.7-4c-5.4-0.5-10.9-0.6-16.3-1.1c-15.7-1.3-31.5-2.7-47.2-4c-10-0.8-20.1-1.2-30.1-2.1
		c-14.2-1.2-28.5-2.7-42.7-3.9c-5.6-0.5-11.2-0.7-16.8-1c-18.1-1-36.3-2-54.4-3c-11.2-0.6-22.4-1.6-33.6-1.9
		c-21.9-0.6-43.9-1.3-65.8-0.9c-18.1,0.4-36.2,2.3-54.2,3.8c-28,2.4-55,9.2-81.2,18.9c-24.5,9.1-47.1,21.7-67.7,38
		c-18.8,14.9-34.5,32.4-46.8,52.9c-6.7,11.2-11.7,23.1-12.5,36.2c-0.2,4.1,1.3,8.3,2,12.5c0.1,0.3,0.5,0.6,0.4,0.9
		c-0.4,3.1-0.8,6.3-1.2,9.4c-2.2-1.5-4.6-2.8-6.6-4.5c-13.5-11.4-13.6-29.7-6.8-45.3c8.2-18.9,19.2-35.9,32.8-51.5
		c17.5-20.1,38.2-35.8,61.4-48.7c24.7-13.7,51.2-22.7,78.4-29.5c15.2-3.8,30.7-6.2,46.2-8.2c17.2-2.3,34.6-4.3,52-5
		c31.5-1.3,63.1-1.6,94.6-2.1c9.4-0.1,18.9,0.5,28.3,0.9c15.4,0.6,30.7,1.3,46.1,2c11,0.5,22.1,1.4,33.1,2c20.3,1.1,40.6,2,60.9,3
		c5.6,0.3,11.2,0.8,16.8,0.9c18.3,0.4,36.5,0.5,54.8,1.1c14,0.4,28.1,1.3,42.1,2c3.3,0.2,6.6,0.5,9.8,1c4.9,0.8,7.6-1.7,9.6-5.9
		c9.6-20.1,19.2-40.1,29-60.1c11.4-23.1,22.3-46.4,34.6-68.9c14.3-26.4,29.7-52.2,44.9-78.1c5-8.4,10.6-16.5,16.3-24.4
		c3.9-5.4,9.5-7.9,16.2-8.7c25.3-2.7,50.6,21.2,53.9,45.4c1.5,11.2,2.5,22.6,3,33.9c0.7,15.6,1,31.2,1,46.8c0,10.8-0.4,21.5-1,32.3
		c-0.8,13.8-2,27.6-2.9,41.4c-0.6,9.7-1,19.5-1.5,29.8c10.3-4,19.9-7.8,29.5-11.5c4.4-1.7,5.9-5.4,6.9-9.4
		c3.1-12.6,5.4-25.5,9.2-37.9c9.2-30.2,23.1-58.2,41.1-84c6.2-8.9,13.3-17.2,20.8-25c7.9-8.3,16.3-16.2,25.4-23.3
		c7.5-5.9,16.5-9.5,26.5-7.9c13.1,2.2,18.5,11.6,21,23.4c3.9,18.3-1.7,34.6-10.7,50.2c-10.7,18.5-24.8,34.5-38,51.2
		c-15.1,19-30.6,37.5-47.7,54.8c-11.6,11.7-16.4,27.3-19.6,43.1c-3.4,16.7-4.9,33.7-3.9,50.7c0.8,13.9,2.5,27.8,5.1,41.4
		c1.8,9.7,10.3,16,21.5,10.4c9.7-4.8,16.3-13,22.7-21c11.8-14.7,23.3-29.6,34-45c11.1-15.9,21.5-32.3,31.9-48.7
		c5.7-9.1,10.8-18.6,16.3-28.2c10.3,2.7,15.7,10.2,19.3,19.3c3.8,9.6,4.6,19.6,5.2,29.8c0.7,10.9,1.8,21.9,4,32.6
		c1.7,8.5,7.8,10,13.9,3.6c5.2-5.4,9.8-11.5,14-17.7c9.8-14.3,19.2-28.8,28.9-43.1c2-2.9,4.5-5.5,7.1-7.9c5.7-5.5,13.8-4.9,19.2,2.9
		c10,14.5,14.7,31.1,18.9,47.9c0.2,0.7,0.6,1.4,1,2.4c5.8-12.1,10.9-24.1,17.1-35.6c5.9-11,11.2-22.5,20.6-31.5
		c10.2-9.8,23.2-8.1,31.2,3.2c6,8.5,8.4,18.4,10,28.3c1.2,7.5,2,15.1,2,22.6c-0.1,11.2-1.3,22.4-1.8,33.6
		c-0.3,5.8-0.2,11.7-0.1,17.5c0.2,9.4,0.5,18.9,1,28.3c0.4,7.2,5.4,10.2,11.4,6.6c6.4-3.9,12.6-8.2,18.3-13.1
		c8.8-7.5,17.2-15.5,25.5-23.6c1.7-1.7,2.6-4.9,2.7-7.5c0.8-21.3,1.8-42.7,8.2-63.3c3.8-12.3,9.5-23.9,19.1-32.7
		c13.7-12.6,29.9-18.8,48.3-12.3c12.8,4.5,23.6,14.7,22.5,31c-0.7,10.4-6.5,18.3-14.3,24.3c-14.8,11.3-30.2,21.7-45.2,32.8
		c-1.8,1.3-3.5,4.5-3.3,6.6c0.8,13,5.5,25.9,20.8,29.1c7.9,1.7,16.9,1.1,24.9-0.8c17.2-4.1,33.9-10.6,51.1-14.5
		c23.9-5.4,47.2-3,68.6,10.1c2.9,1.8,4.3,4,2.8,7.3c-1.5,3.3-4,2.6-7,1.9c-11.9-2.9-23.7-6.4-35.7-7.8c-13.1-1.6-25.3,3.7-37.5,8.1
		c-13.3,4.8-26.7,9.4-40.2,13.7c-21.8,6.9-41.7,2.2-60-10.6c-0.7-0.5-1.3-1-2-1.4c-7.6-5.1-7.9-5.5-14.9,0.1
		c-7.9,6.3-15.4,12.9-22.5,20.1c-7,7.1-13,15.4-19.9,22.6c-8.9,9.2-21.6,11.2-31.4,5.2c-7.6-4.6-11.7-12.4-13.9-20.3
		c-3.1-11.4-5.1-23.3-6.1-35.1c-1.2-14.9-1.1-29.9-1.1-44.8c0-7.4,1.6-14.7,1.7-22.1c0.1-6.8,0.1-13.8-4.4-19.7
		c-2.8-3.7-5.6-4-8.9-0.9c-9.2,8.4-12.7,19.8-15.4,31.2c-4.8,20.4-8.6,41.1-13.3,61.6c-1.2,5.1-3.8,10.1-6.8,14.4
		c-4.7,6.8-20.3,8.4-26.3,2.7c-2.2-2.1-3.6-6-3.6-9.1c0-26.3,0.6-52.5,0.7-78.8c0-3.1-0.9-6.5-2.2-9.4c-1.4-3-4.2-4-6.7-1
		c-2.2,2.6-4.3,5.4-5.9,8.4c-6.8,12.5-12.9,25.4-20.1,37.6c-5.7,9.6-13.6,17.2-24.7,20.8c-12.4,3.9-26.3-2-33.6-11
		c-10.1-12.6-14.5-27.2-17.6-42.5c-0.1-0.6-0.2-1.3-0.5-1.9c-0.2-0.5-0.6-1-1.2-1.8c-4.5,7.9-9,15.5-13.2,23.2
		c-11.2,20.5-23.3,40.5-38,58.7c-10.4,12.8-22,24.5-38.3,29.9c-13,4.3-24.4,1-34.4-8.1c-17.5-15.9-26.4-36.3-30.4-59.1
		c-1.7-9.7-3-19.4-3.9-29.2c-0.4-4,0.6-8.2,0.8-12.3c0.1-1.6-0.1-3.1-0.3-5.6c-10.3,5.1-20,9.4-29.1,14.7c-2.5,1.5-3.8,6-4.4,9.4
		c-1,5.3-0.8,10.8-1.2,16.3c-1.3,17.9-2.7,35.8-4,53.7c-0.4,5.6-0.8,11.2-1,16.8c-1,24.6-2.1,49.3-3,73.9
		c-0.5,14.4-1.1,28.9-0.9,43.3c0.1,12.4,0.8,24.8,2,37.1c2.3,23.7,5.4,47.4,13,70.2c1.7,5.1,4.8,9.9,8,14.3c2.9,4,7.5,5.8,12.3,4.3
		c4.7-1.5,7.2-5.6,8.5-10.2c1.1-4.1,1.9-8.2,3-12.3c0.5-1.7,1-3.6,2.1-4.9c1.3-1.7,3.3-2.9,4.9-4.2c1,2.1,2.7,4.1,2.9,6.2
		c1,9.7-0.9,18.8-7.8,26c-11.7,12-26.6,12.5-41.3,3.8c-14.7-8.7-23-22.7-28.6-38.2c-7.1-19.7-12-40-14.1-60.8
		c-1.7-16.7-2.9-33.4-4-50.2c-0.7-10.4-1.2-20.9-1-31.3c0.3-17.7,1.1-35.4,2-53.1c0.8-15,2-29.9,2.9-44.9c0.7-10.9,1.4-21.7,2-32.6
		c0.2-4.4,0.6-8.8,0.3-13.1c-0.7-9.4-8.1-10.2-15.6-9.7c-2.1,0.1-4.2,0.8-6.3,0.8c-17.2,0.1-34.3,0.4-51.5-0.1
		c-18.8-0.5-37.6-1.7-56.4-3c-6.6-0.4-10.1,2.4-13.1,8.1c-13.8,26.1-28.9,51.6-47,75c-8.7,11.2-17.2,23-30,30.2
		c-6.5,3.7-13.3,6.4-21.2,5c-6.8-1.2-10.4-5.8-13.4-11.1C599.8,423.1,598.1,412.9,601.4,400.9z M737.5,289.8
		c4.6,5.4,11.1,5.5,16.9,5.6c14.9,0.2,29.9-0.4,44.8-0.9c5.4-0.2,10.9-0.5,16.3-1.1c12.6-1.2,25.1-2.7,37.7-3.9
		c8.9-0.9,11.9-3.4,12.6-12.8c0.6-9,1.3-18.1,2-27.1c1.3-17.9,2.7-35.8,4-53.7c0.4-6.1,0.9-12.2,1-18.3c0.4-14.6,1.4-29.2,0.7-43.8
		c-0.8-16.4-3.1-32.7-4.8-49c-0.4-4.1-0.8-8.6-5.2-10.3c-4.1-1.6-6.7,2-9.5,4.2c-0.3,0.2-0.5,0.4-0.7,0.7
		c-6.8,9.2-14.6,17.8-20.2,27.7c-16.9,30-33.4,60.3-49.3,90.8C767.9,228.3,753,258.9,737.5,289.8z M992.1,233.5
		c0.4,0.3,0.8,0.5,1.1,0.8c1.2-1.1,2.5-2.2,3.6-3.4c11.3-12.6,22.9-25.1,33.9-38c9.3-10.8,19.1-21.4,26.6-33.4
		c9.5-15.1,16.9-31.5,25-47.5c1.2-2.5,1.1-5.7,1.3-8.7c0.2-3.3-1.8-5.5-4.8-4.6c-4.5,1.2-9.1,2.8-12.9,5.3
		c-10.2,6.8-16.4,17.2-23.4,26.9c-15.5,21.7-28.4,44.9-38,69.9C1000.4,211.7,996.3,222.6,992.1,233.5z M1417.1,304.1
		c4.4-3.1,7.7-5.4,11.1-7.7c8.1-5.6,16.2-11.4,21.8-19.7c2.6-3.7,2.2-10.5-0.6-12.7c-3.2-2.6-6.7-2-10.8,3.2
		C1430,278.1,1423.1,290.1,1417.1,304.1z"/>
	<path class="st0" d="M3123.9,432.5c-4.3-12.2-9.1-22.4-16.1-31.7c-9.8-13-22-23-35.9-31c-13.9-8-28.8-14-44.4-17.6
		c-13.3-3.1-26.9-5.2-40.4-7.5c-31.7-5.5-63.8-4.3-95.7-3.8c-17.4,0.2-34.8,2.4-52.2,3.8c-9,0.7-18.1,1.2-27.1,2.1
		c-12.6,1.2-25.1,2.6-37.7,3.9c-3.9,0.4-7.9,0.8-11.8,1c-12,0.7-24.1,2-36.1,1.9c-13.9-0.1-26.9-3.7-36.5-15
		c-4.2-4.9-8.6-9.6-13.2-14.2c-2.2-2.2-5-3.9-7.9-6c-2.9,7.3-5.5,14-8.2,20.6c-5.8,14.6-14.4,27.3-28.1,35.1
		c-15.9,9-31.2,8.3-47.2-5.1c-5.6-4.7-11.5-9.1-17.1-13.6c-6,8.7-13.7,20-21.5,31.1c-6.5,9.2-12.2,19.2-19.9,27.2
		c-13,13.6-29.5,12.3-40-5.1c-6-9.9-9.5-20.8-10-32.5c-0.9-19.5-1.9-39.1-1.9-58.6c0-13,2-25.9,2.7-38.9c0.1-2.5-1.5-5.1-2.3-7.6
		c-2.7,0.9-5.7,1.2-7.9,2.7c-10.5,7.3-14.3,18.9-17.5,30.3c-6.8,24.1-12.7,48.5-19.4,72.6c-1.3,4.6-3.5,9.2-6.5,12.9
		c-4.6,5.7-12.7,5.4-18.4,0.6c-6.6-5.5-9.1-13.1-9.7-20.8c-1.1-12.9-1.1-25.8-1.1-38.8c0-8.4,0.9-16.9,0.8-25.3c0-4.3-1-8.8-2.2-13
		c-1.2-4.4-3.8-5.2-7.7-2.5c-1.8,1.2-3.4,3.1-4.5,5c-9,14.7-17.4,29.8-30.6,41.4c-8.1,7.1-16.7,14.3-28.5,13.5
		c-8.3-0.6-15-4.5-20.5-11c-9.1-10.7-11.5-23.9-14.9-36.8c-0.3-1.3-0.9-2.5-1.6-4.7c-8.5,13.9-16.1,27.2-24.6,39.9
		c-11.1,16.5-22.6,32.8-34.6,48.7c-5.4,7.1-11.8,13.8-19,19c-16,11.6-27.2,8-41.4-3c-17.1-13.3-25.3-32.2-29.6-52.7
		c-3.4-15.9-5.9-32-8.8-48.1c-10.6,1.9-14.7,10.3-18.2,19c-7.1,17.5-13.1,35.5-21.3,52.5c-8.5,17.7-22.9,28.5-43.7,28.2
		c-7.4-0.1-13.9-3.2-19.9-8c-2.8,5.7-5.3,11.4-8.1,16.9c-7.7,14.8-16.1,29.2-27.7,41.5c-7.8,8.1-17.9,8.3-26.9,3.3
		c-13.6-7.6-19-20.3-20.2-35c-0.8-10.1-0.9-20.5,0-30.6c1.3-14,2.9-28.1,6.3-41.7c9.7-39,20.3-77.8,30.6-116.6
		c4-15.1,8.7-30.1,11.4-45.4c1.8-10.2,1.2-21.1,0.2-31.5c-0.8-8.3-8.5-10.7-15-4.8c-5.7,5.1-11.3,10.7-15.5,17
		c-14.9,22.2-29.6,44.6-43.7,67.3c-9.8,15.8-18.5,32.3-27.4,48.6c-7.2,13.3-13.8,27-20.9,40.4c-4,7.5-9.6,12.8-19.2,11.7
		c-6.5-0.7-10.8-5-11-11.5c-0.8-21.1,3.1-41.5,7.7-61.9c4.9-21.6,9.8-43.2,15.4-64.6c4.2-15.9,9.6-31.4,14.4-47.2
		c2.7-8.8,5.9-17.6,4.4-27c-0.2-1.7-1.2-4.5-1.9-4.5c-1.9,0-4.4,0.6-5.7,2c-6.5,6.8-13.3,13.5-18.9,21c-10.3,13.9-20.3,28-29.8,42.5
		c-19.1,29.4-35.3,60.4-45,94.2c-5,17.3-8,35.2-11.7,52.9c-2.8,12.9-4.9,25.9-8.2,38.7c-2.3,9.2-9.1,12.3-17.2,9.3
		c-5.7-2.1-7.5-7.1-7.5-12.2c0.1-9.5,1.1-19.1,1.8-28.6c0-0.7,0.1-1.3,0.1-2c0.3-11.1,0.6-22.2,1-33.3c0.6-14.7,1.3-29.4,2-44.1
		c0.7-15.7,1.3-31.4,2-47.1c0.7-15,1.3-30.1,2-45.1c0.4-7.5-4.2-9.5-9.5-5.6c-4.2,3.1-8.9,5.5-12.7,9c-9.9,9.1-19.3,18.7-29.1,27.9
		c-21.4,20-44.2,38.1-70.1,51.9c-9.6,5.1-19.5,9.8-29.7,13.6c-5.5,2.1-11.8,1.8-16.1-4.4c20.9-9.7,41.3-20,59.6-33.8
		c13.6-10.2,27-20.9,39.8-32.1c9.7-8.5,18.4-18,27.4-27.3c3.4-3.5,6.2-7.7,9.6-11.2c8.8-9.4,18.5-17.1,32.3-17.6
		c12.4-0.4,21.4,6.5,24.2,18.7c3.2,13.9,3.3,28.1,1.4,42.3c-0.2,1.5,0,3-0.1,4.5c-0.7,14.9-1.3,29.7-2,44.6
		c-0.1,1.7-0.7,3.4-0.4,5.4c3.1-6.3,6.1-12.5,9.2-18.8c7.4-14.7,14.2-29.8,22.6-44c12.3-20.8,25.1-41.3,38.8-61.2
		c11.1-16,23.2-31.4,36.1-45.9c12.9-14.4,31.3-7.5,37.5,8.1c2.6,6.5,3.9,13.9,4,21c0.1,14.5-0.3,29.2-2,43.6
		c-2.5,21.1-7.4,41.7-14.3,61.8c-0.2,0.7-0.3,1.5-0.4,1.9c10.2-14,20.3-28.4,30.9-42.5c6.6-8.8,13.5-17.3,20.8-25.5
		c7.5-8.4,15.4-16.5,23.4-24.4c4.7-4.7,10.4-8.1,17.2-8.3c11-0.3,18.9,5.2,24.6,14.3c4.3,6.8,5.9,14.4,6,22.5
		c0.3,20.7-2.4,41-7,61.1c-7.7,34.1-16,68.2-23.6,102.3c-4,17.8-7.6,35.8-10.3,53.8c-2.2,14.6-2.9,29.4-4.1,44.2
		c-0.5,6.4-0.7,12.8-1.1,19.2c0.8,0.3,1.6,0.5,2.5,0.8c4.2-6,8.9-11.7,12.4-18c8.7-15.2,12.2-32.1,15.2-49.3
		c3.5-20,5.5-40.5,13.9-59.4c8.8-19.8,21-36.1,43.7-40.8c17.1-3.5,37.2,2.8,47.5,17.9c4.2,6,6.9,6.3,10.6-0.5
		c3.7-6.8,6.5-14.2,9.1-21.5c8.1-23,15.9-46.2,23.9-69.2c10.7-30.6,25.9-58.8,46.3-84.1C2211,96,2223.2,83,2238,72.8
		c10.2-7.1,21-7.1,31.6-1.6c10.2,5.3,14,14.5,15.2,25.7c1.8,15.6-5,28.2-12.3,40.7c-6.3,10.9-12.8,21.7-20.1,31.9
		c-6.7,9.3-14.5,17.9-21.9,26.6c-15.3,18.1-31,35.8-46,54.2c-9.2,11.2-13.6,24.9-15.9,39c-2.3,14.4-3.4,29-5.2,43.4
		c-2,16-2.1,32,4.2,47.1c2.1,5.1,5.9,9.8,9.7,13.9c3.8,4,10.9,2.6,16.2-2.8c6.7-6.9,13.2-13.9,19.3-21.3
		c9.2-11.1,18.2-22.4,26.9-33.9c13.6-18,26.1-36.8,36.6-56.7c5.1-9.7,10.4-19.2,15.7-29c10.4,2,16.3,9,20.2,17.7
		c4.8,10.8,5.5,22.4,6.3,34.1c0.7,11.4,2.6,22.8,4.1,34.2c0.1,0.6,0.8,1,1.4,1.9c9.4-4.5,18.3-9.8,24.4-18.4
		c11.2-15.9,21.8-32.1,32.9-48.1c1.9-2.8,4.4-5.4,6.9-7.7c3.3-3,7.9-2.5,11.5,0.8c11.7,10.8,18.6,24.3,22.7,39.5
		c1.3,4.9,2.1,10,3.4,16c7.1-19.6,15.2-37.5,26.6-53.8c3.2-4.5,6.6-9,10.3-13.1c8.8-9.9,19-8.9,28.1-1.2
		c6.6,5.6,10.5,12.9,10.6,21.9c0.3,36.1,0.6,72.2,1.1,108.3c0,3.2,0.6,6.5,1.5,9.7c1.8,6.5,5.7,8.2,10.8,3.9
		c6-4.9,11.6-10.4,16.4-16.4c6.5-8.1,12.5-16.8,18.2-25.5c6.3-9.6,8-20.9,10.1-31.9c3.1-16.8,4.5-34,12.7-49.5
		c8.2-15.3,20.5-24.5,37.7-27.7c18-3.3,33.4,1.9,46.6,13.8c3.5,3.1,5.8,7.8,8.2,12c2.1,3.6,0.6,7.2-2.7,8.8
		c-3.6,1.8-6.4-0.1-8.3-3.9c-4-8.2-13.8-11.1-22.2-7.3c-11.3,5.1-16.3,15.3-20.9,25.6c-7.5,16.5-9.1,34.1-8.2,52.1
		c0.6,11.5,10.4,15.3,21.7,8.7c10.9-6.4,17.1-16.4,22.3-27.3c4.7-10,9.1-20.3,14.1-30.2c2.8-5.5,7.8-9.4,14.2-9.1
		c6.6,0.3,11.7,4.5,14.7,10.2c3,5.7,5.5,11.8,7.7,17.9c4.8,13.9,15.8,20.2,29,21.4c18.5,1.6,37.2,1.5,55.8,1.2
		c14.3-0.2,28.6-1.8,42.9-2.9c12.8-0.9,25.6-2.2,38.4-3c19.1-1.2,38.3-2.3,57.4-2.9c13.4-0.5,26.8-0.8,40.1,0.1
		c15.2,1.1,30.2,3.5,45.3,5.6c19.5,2.7,38.2,8.5,56.1,16.3c18.4,8,36.4,16.9,50.1,32.2c11.1,12.4,16.9,26.8,13.2,43.8
		C3125.4,429,3124.8,430.1,3123.9,432.5z M2185.1,221.1c0.4,0.2,0.9,0.5,1.3,0.7c3.6-3.1,7.5-5.8,10.6-9.3
		c11-12.3,21.6-24.8,32.4-37.2c17.4-20.2,30.8-43,42.6-66.7c2.7-5.4,5.3-10.9,4.6-17.3c-0.5-4.8-3.7-6.9-8.2-5.1
		c-1.6,0.7-3.4,1.5-4.6,2.7c-13,12.5-25.2,25.5-35.6,40.4c-11.9,16.9-22,34.8-29.7,53.9C2193.6,195.6,2189.6,208.4,2185.1,221.1z
		 M2064.3,299.9c-1.6,2.2-3,3.7-3.9,5.4c-5,9.7-10.3,19.3-14.7,29.3c-5.8,13.2-8.1,27.4-5.8,41.5c1.6,9.5,5,13.5,14.7,8.2
		c4.5-2.4,8.8-6.3,11.7-10.5c10.4-14.8,19.3-30.5,25.4-47.7c3.1-8.6,1.6-11.3-7.6-12.6c-5.9-0.9-11.3-2.8-15-8
		C2067.8,303.7,2066.1,302.1,2064.3,299.9z M2086,303.6c6.9,0,9-0.9,10.7-4.1c2.8-5.3,0.7-11.7-4.8-14.1c-5.3-2.4-13.8,1.7-16.6,8
		c-1.5,3.5,1.5,7.6,7.3,9.7C2084.1,303.6,2085.8,303.6,2086,303.6z"/>
	<path class="st0" d="M1133.1,196.6c-10.4,0-16.7-8.4-14.2-19.2c1.2-5.1,1.8-10.6,7.1-13.7c5.5-3.3,18.2-2.3,22.2,2.8
		c4.2,5.4,4.2,14.4-0.7,20.7C1141.6,194.8,1138.8,196.6,1133.1,196.6z"/>
	<path class="st0" d="M2342.6,167.1c0.8,8.9-7.1,17.9-16.7,19.4c-10.3,1.6-17.6-8-15-19.3c0.1-0.5,0.7-0.9,0.7-1.3
		c0.6-14.9,13.3-16.7,23.9-12.2C2340.8,156.1,2343.1,161.1,2342.6,167.1z"/>
	<g>
		<path class="st0" d="M1141.4,489.5l32.3,71h-9.8l-7.9-17.5h-29l-7.8,17.5h-9.7L1141.4,489.5z M1141.3,510.9l-10.9,24.4h22
			L1141.3,510.9z"/>
		<path class="st0" d="M1183.7,492.1h14.8c7.4,0,13.4,1.8,18,5.5c4.6,3.7,7,8.4,7,14.1c0,4.6-1.5,8.6-4.5,12.1c-3,3.5-7.7,6-14,7.4
			l19.9,29.3h-10.7l-19-28.1h-2.1v28.1h-9.3V492.1z M1193,500.4v23.8c13.8,0.3,20.7-3.7,20.7-12c0-2.9-0.8-5.3-2.4-7.1
			c-1.6-1.8-3.8-3.1-6.4-3.8C1202.2,500.7,1198.2,500.4,1193,500.4z"/>
		<path class="st0" d="M1298,553.1l10.7,11.6h-12.2l-6-6.4c-6.5,3-12.7,4.5-18.5,4.5c-10.5,0-19.4-3.6-26.7-10.8
			c-7.3-7.2-11-15.9-11-26.1c0-9.9,3.7-18.3,11.1-25.4c7.4-7,16.3-10.6,26.8-10.6c10.3,0,19.1,3.5,26.5,10.5
			c7.4,7,11.1,15.4,11.1,25.1C1309.8,536.6,1305.9,545.8,1298,553.1z M1283.5,550.8l-15-16.1h12.2l10.5,11.3
			c5.8-5.5,8.7-12.1,8.7-19.7c0-7.6-2.7-13.9-8.1-19c-5.4-5.1-12.1-7.7-20.1-7.7c-7.6,0-14.1,2.6-19.5,7.8c-5.4,5.2-8,11.5-8,19
			s2.7,13.7,8.2,18.9c5.5,5.2,12.1,7.8,20,7.8C1275.7,553.1,1279.4,552.3,1283.5,550.8z"/>
		<path class="st0" d="M1321.7,492.3h9.3v42c0,6.2,1.5,11,4.5,14.4c3,3.4,7.2,5.1,12.7,5.1c5.4,0,9.7-1.6,12.7-4.7
			c3-3.1,4.5-7.5,4.5-13.2v-43.6h9.3v43c0,8.4-2.4,15.1-7.2,20.1c-4.8,5-11.1,7.5-19.1,7.5c-8.1,0-14.6-2.5-19.5-7.6
			c-4.9-5.1-7.3-12.6-7.3-22.5V492.3z"/>
		<path class="st0" d="M1388.3,492.1h9.2v68.4h-9.2V492.1z"/>
		<path class="st0" d="M1408.3,492.1h41.8v9.3h-16.3v59.1h-9.2v-59.1h-16.3V492.1z"/>
		<path class="st0" d="M1459.9,492.1h37.9v9.3h-28.7v17.1h28.7v9.2h-28.7v23.5h28.7v9.2h-37.9V492.1z"/>
		<path class="st0" d="M1504.7,492.1h41.8v9.3h-16.3v59.1h-9.2v-59.1h-16.3V492.1z"/>
		<path class="st0" d="M1556.7,492.3h9.3v42c0,6.2,1.5,11,4.5,14.4c3,3.4,7.2,5.1,12.7,5.1c5.4,0,9.7-1.6,12.7-4.7
			c3-3.1,4.5-7.5,4.5-13.2v-43.6h9.3v43c0,8.4-2.4,15.1-7.2,20.1c-4.8,5-11.1,7.5-19.1,7.5c-8.1,0-14.6-2.5-19.5-7.6
			c-4.9-5.1-7.3-12.6-7.3-22.5V492.3z"/>
		<path class="st0" d="M1624.9,492.1h14.8c7.4,0,13.4,1.8,18,5.5c4.6,3.7,7,8.4,7,14.1c0,4.6-1.5,8.6-4.5,12.1c-3,3.5-7.7,6-14,7.4
			l19.9,29.3h-10.7l-19-28.1h-2.1v28.1h-9.3V492.1z M1634.2,500.4v23.8c13.8,0.3,20.7-3.7,20.7-12c0-2.9-0.8-5.3-2.4-7.1
			c-1.6-1.8-3.8-3.1-6.4-3.8C1643.3,500.7,1639.4,500.4,1634.2,500.4z"/>
		<path class="st0" d="M1703.9,489.5l32.3,71h-9.8l-7.9-17.5h-29l-7.8,17.5h-9.7L1703.9,489.5z M1703.9,510.9l-10.9,24.4h22
			L1703.9,510.9z"/>
		<path class="st0" d="M1775.2,492.1h16.6c13.1,0,22.9,3.5,29.3,10.4c6.4,6.9,9.6,14.9,9.6,23.8c0,9-3.3,16.9-9.9,23.8
			c-6.6,6.9-16.3,10.4-28.9,10.4h-16.7V492.1z M1784.6,501.3v50h0.5c6.9,0,12.2-0.3,15.7-0.9c3.5-0.6,6.8-2,10-4.1s5.7-4.9,7.5-8.4
			c1.9-3.5,2.8-7.3,2.8-11.5c0-5.3-1.5-10-4.5-14.3c-3-4.3-6.5-7.1-10.7-8.6c-4.1-1.5-9.7-2.2-16.7-2.2H1784.6z"/>
		<path class="st0" d="M1840.8,492.1h37.9v9.3H1850v17.1h28.7v9.2H1850v23.5h28.7v9.2h-37.9V492.1z"/>
		<path class="st0" d="M1919.9,492.1h9.2v68.4h-9.2V492.1z"/>
		<path class="st0" d="M1943.6,489.4l50.6,52v-49.2h9.3v71.6l-50.6-51.8v48.6h-9.3V489.4z"/>
		<path class="st0" d="M2013.3,492.1h41.8v9.3h-16.3v59.1h-9.2v-59.1h-16.3V492.1z"/>
		<path class="st0" d="M2064.9,492.1h37.9v9.3h-28.7v17.1h28.7v9.2h-28.7v23.5h28.7v9.2h-37.9V492.1z"/>
		<path class="st0" d="M2115.2,492.1h14.8c7.4,0,13.4,1.8,18,5.5c4.6,3.7,7,8.4,7,14.1c0,4.6-1.5,8.6-4.5,12.1c-3,3.5-7.7,6-14,7.4
			l19.9,29.3h-10.7l-19-28.1h-2.1v28.1h-9.3V492.1z M2124.6,500.4v23.8c13.8,0.3,20.7-3.7,20.7-12c0-2.9-0.8-5.3-2.4-7.1
			c-1.6-1.8-3.8-3.1-6.4-3.8C2133.7,500.7,2129.8,500.4,2124.6,500.4z"/>
		<path class="st0" d="M2168.6,492.1h9.2v68.4h-9.2V492.1z"/>
		<path class="st0" d="M2190,525.9c0-9.9,3.7-18.3,11.2-25.4c7.4-7,16.4-10.6,26.8-10.6c10.2,0,19,3.6,26.4,10.6
			c7.4,7.1,11.1,15.5,11.1,25.3c0,10.3-3.6,19.1-10.9,26.2c-7.3,7.1-16.2,10.7-26.8,10.7c-10.5,0-19.3-3.6-26.7-10.8
			C2193.7,544.9,2190,536.2,2190,525.9z M2255.5,526.4c0-7.5-2.7-13.9-8.2-19.1c-5.4-5.2-12.1-7.8-20.1-7.8c-7.6,0-14,2.6-19.4,7.9
			c-5.4,5.3-8.1,11.6-8.1,18.9c0,7.5,2.8,13.8,8.3,19c5.5,5.2,12.3,7.7,20.3,7.7c7.4,0,13.7-2.6,19.1-7.9S2255.5,533.6,2255.5,526.4
			z"/>
		<path class="st0" d="M2279.1,492.1h14.8c7.4,0,13.4,1.8,18,5.5c4.6,3.7,7,8.4,7,14.1c0,4.6-1.5,8.6-4.5,12.1c-3,3.5-7.7,6-14,7.4
			l19.9,29.3h-10.7l-19-28.1h-2.1v28.1h-9.3V492.1z M2288.4,500.4v23.8c13.8,0.3,20.7-3.7,20.7-12c0-2.9-0.8-5.3-2.4-7.1
			c-1.6-1.8-3.8-3.1-6.4-3.8C2297.6,500.7,2293.6,500.4,2288.4,500.4z"/>
		<path class="st0" d="M2331.9,492.1h37.9v9.3h-28.7v17.1h28.7v9.2h-28.7v23.5h28.7v9.2h-37.9V492.1z"/>
		<path class="st0" d="M2422.6,499.8l-7.6,6.1c-2-2.1-3.8-3.6-5.4-4.6s-4-1.5-7-1.5c-3.4,0-6.1,0.8-8.2,2.3s-3.1,3.5-3.1,5.9
			c0,2.1,0.9,3.9,2.7,5.5s4.9,3.3,9.3,5.2c4.4,1.9,7.8,3.6,10.3,5.3c2.4,1.6,4.5,3.4,6,5.4c1.6,2,2.7,4,3.5,6.2
			c0.8,2.2,1.2,4.5,1.2,6.9c0,5.7-2.1,10.5-6.2,14.5c-4.1,4-9.1,6-15,6c-5.7,0-10.8-1.6-15.2-4.7c-4.4-3.1-7.8-7.8-10.1-14.1
			l9.3-2.6c3.4,7.7,8.6,11.5,15.6,11.5c3.4,0,6.2-1,8.5-3.1c2.3-2,3.4-4.6,3.4-7.7c0-1.9-0.6-3.7-1.8-5.6c-1.2-1.9-2.7-3.4-4.4-4.6
			c-1.8-1.2-4.5-2.6-8.4-4.2c-3.8-1.6-6.8-3-8.8-4.3c-2.1-1.3-3.9-2.9-5.4-4.7c-1.5-1.8-2.6-3.6-3.3-5.4s-1-3.7-1-5.7
			c0-4.9,2-9.1,5.9-12.5c3.9-3.5,8.7-5.2,14.3-5.2c3.7,0,7.5,0.8,11.3,2.4C2416.8,494,2420,496.5,2422.6,499.8z"/>
	</g>
</g>
</svg>
